<?xml version="1.0" encoding="utf-8"?>
<!-- Generator: Adobe Illustrator 19.2.1, SVG Export Plug-In . SVG Version: 6.00 Build 0)  -->
<svg version="1.1" xmlns="http://www.w3.org/2000/svg" xmlns:xlink="http://www.w3.org/1999/xlink" x="0px" y="0px"
	 viewBox="0 0 1080 1080" style="enable-background:new 0 0 1080 1080;" xml:space="preserve">
<style type="text/css">
	.st0{stroke:#000000;stroke-width:7;}
	.st1{fill:#FFFFFF;}
	.st2{fill:#FFFFFF;stroke:#FFFFFF;stroke-width:7;}
</style>
<g id="Capa_2">
	<rect class="st0" width="1080" height="1080"/>
</g>
<g id="Capa_1">
	<g>
		<path class="st1" d="M269.4,737.6l0.7,12.9l-0.9,0c-0.3-2.2-0.9-4-1.7-5.4c-0.8-1.4-1.9-2.7-3.4-3.8c-1.2-0.9-2.7-1.6-4.3-1.9
			c-1.7-0.4-3.9-0.6-6.6-0.6h-8.9v23.4h2.3c2.4,0,4.2-0.2,5.4-0.5c1.2-0.3,2.2-0.9,2.9-1.7c0.7-0.8,1.3-1.6,1.6-2.7
			c0.4-1,0.6-2.5,0.9-4.6l0.9,0l-0.2,20.9h-0.9c-0.2-2-0.6-3.6-1-4.8c-0.5-1.2-1.1-2.3-1.9-3.1c-0.8-0.8-1.8-1.4-3-1.8
			s-2.8-0.6-4.8-0.6h-2.2v8.9c0,3.6,0.1,6.2,0.3,7.8c0.2,1.6,0.5,3,1.1,4.1c0.9,1.9,2.2,3.2,4,4.1c1.8,0.9,4.2,1.3,7.2,1.3
			c3.1,0,5.7-0.4,7.9-1.2c2.1-0.8,3.8-2,5.2-3.7c0.9-1.1,1.7-2.4,2.3-3.8c0.6-1.4,1.1-3.3,1.6-5.7l0.9,0l-0.5,15.5h-46.6V790
			c1.5-0.1,2.7-0.3,3.6-0.6c0.9-0.3,1.8-0.9,2.5-1.6c0.8-0.8,1.4-1.9,1.7-3.2c0.3-1.3,0.4-3.3,0.4-5.9v-28.8c0-2.7-0.2-4.6-0.4-5.9
			c-0.3-1.3-0.9-2.3-1.7-3.2c-0.7-0.8-1.5-1.3-2.4-1.6c-0.9-0.3-2.1-0.5-3.7-0.6v-0.9H269.4z"/>
		<path class="st1" d="M277.3,790.9V790c2.6,0,4.7-0.7,6.1-2.2c0.8-0.8,1.4-1.9,1.7-3.2c0.3-1.3,0.4-3.3,0.4-5.9v-28.8
			c0-2.8-0.2-4.8-0.5-6.1c-0.3-1.3-0.9-2.4-1.8-3.2c-0.7-0.7-1.5-1.2-2.4-1.5s-2.1-0.5-3.5-0.5v-0.9h25v0.9
			c-1.4,0.1-2.6,0.3-3.5,0.6c-0.9,0.3-1.7,0.8-2.4,1.5c-0.9,0.9-1.5,1.9-1.8,3.2c-0.3,1.3-0.5,3.3-0.5,6.1v22.5c0,3.5,0.1,6,0.3,7.7
			c0.2,1.7,0.5,3.1,1.1,4.1c0.9,1.9,2.3,3.2,4.1,4.1c1.8,0.9,4.2,1.3,7.1,1.3c3.1,0,5.7-0.4,7.8-1.2c2.1-0.8,3.9-2.1,5.2-3.8
			c0.9-1.2,1.7-2.5,2.2-4s1.1-3.4,1.6-5.9l0.9,0.1l-0.5,16H277.3z"/>
		<path class="st1" d="M413.5,738.5c-1.5,0.1-2.7,0.3-3.6,0.6c-0.9,0.3-1.7,0.9-2.5,1.6c-0.6,0.5-1,1.2-1.3,1.8
			c-0.3,0.7-0.5,1.5-0.6,2.5c-0.2,1.4-0.3,3-0.3,4.8v28.8c0,2.7,0.2,4.7,0.5,6c0.3,1.3,0.9,2.3,1.7,3.1c1.4,1.4,3.5,2.1,6.1,2.3v0.9
			h-25V790c1.5-0.1,2.7-0.3,3.7-0.6c0.9-0.4,1.8-0.9,2.5-1.6c0.8-0.8,1.4-1.9,1.7-3.2c0.3-1.3,0.4-3.3,0.4-5.9v-34.9l-20.1,47.2
			h-0.8l-20-46.5v34.2c0,2.7,0.1,4.7,0.4,5.9c0.3,1.3,0.9,2.3,1.7,3.2c0.7,0.8,1.6,1.3,2.5,1.6c0.9,0.3,2.1,0.5,3.6,0.6v0.9h-18V790
			c1.5-0.1,2.7-0.3,3.6-0.6c0.9-0.3,1.8-0.9,2.5-1.6c0.8-0.8,1.4-1.9,1.7-3.2c0.3-1.3,0.4-3.3,0.4-5.9v-28.8c0-1.2,0-2.3-0.1-3.4
			c-0.1-1.9-0.4-3.3-0.9-4.2c-0.7-1.2-1.5-2.1-2.7-2.7s-2.6-0.9-4.5-1v-0.9h17l16.9,41.8l17.5-41.8h16.1V738.5z"/>
		<path class="st1" d="M442.4,737.6v0.9c-1.5,0.1-2.7,0.3-3.6,0.6c-0.9,0.3-1.8,0.9-2.5,1.6c-1,1-1.6,2.5-1.9,4.3
			c-0.2,1.4-0.2,3-0.2,4.8v28.8c0,2.2,0.1,3.9,0.3,5.1c0.2,1.3,0.5,2.3,1,3c0.7,1,1.5,1.8,2.6,2.3c1.1,0.5,2.5,0.8,4.3,0.9v0.9h-25
			V790c1.5-0.1,2.7-0.3,3.7-0.6c0.9-0.4,1.7-0.9,2.4-1.6c0.8-0.8,1.4-1.9,1.7-3.2c0.3-1.3,0.4-3.3,0.4-5.9v-28.8
			c0-2.7-0.1-4.7-0.4-5.9c-0.3-1.3-0.8-2.3-1.7-3.2c-0.7-0.8-1.5-1.3-2.5-1.6c-0.9-0.3-2.1-0.5-3.6-0.6v-0.9H442.4z"/>
		<path class="st1" d="M446.2,790.9V790c2.6,0,4.7-0.7,6.1-2.2c0.8-0.8,1.4-1.9,1.7-3.2c0.3-1.3,0.4-3.3,0.4-5.9v-28.8
			c0-2.8-0.2-4.8-0.5-6.1c-0.3-1.3-0.9-2.4-1.8-3.2c-0.7-0.7-1.5-1.2-2.4-1.5s-2.1-0.5-3.5-0.5v-0.9h25v0.9
			c-1.4,0.1-2.6,0.3-3.5,0.6c-0.9,0.3-1.7,0.8-2.4,1.5c-0.9,0.9-1.5,1.9-1.8,3.2c-0.3,1.3-0.5,3.3-0.5,6.1v22.5c0,3.5,0.1,6,0.3,7.7
			c0.2,1.7,0.5,3.1,1.1,4.1c0.9,1.9,2.3,3.2,4.1,4.1c1.8,0.9,4.2,1.3,7.1,1.3c3.1,0,5.7-0.4,7.8-1.2c2.1-0.8,3.9-2.1,5.2-3.8
			c0.9-1.2,1.7-2.5,2.2-4s1.1-3.4,1.6-5.9l0.9,0.1l-0.5,16H446.2z"/>
		<path class="st1" d="M495,790.9V790c2.6,0,4.7-0.7,6.1-2.2c0.8-0.8,1.4-1.9,1.7-3.2c0.3-1.3,0.4-3.3,0.4-5.9v-28.8
			c0-2.8-0.2-4.8-0.5-6.1c-0.3-1.3-0.9-2.4-1.8-3.2c-0.7-0.7-1.5-1.2-2.4-1.5s-2.1-0.5-3.5-0.5v-0.9h25v0.9
			c-1.4,0.1-2.6,0.3-3.5,0.6c-0.9,0.3-1.7,0.8-2.4,1.5c-0.9,0.9-1.5,1.9-1.8,3.2c-0.3,1.3-0.5,3.3-0.5,6.1v22.5c0,3.5,0.1,6,0.3,7.7
			c0.2,1.7,0.5,3.1,1.1,4.1c0.9,1.9,2.3,3.2,4.1,4.1c1.8,0.9,4.2,1.3,7.1,1.3c3.1,0,5.7-0.4,7.8-1.2c2.1-0.8,3.9-2.1,5.2-3.8
			c0.9-1.2,1.7-2.5,2.2-4s1.1-3.4,1.6-5.9l0.9,0.1l-0.5,16H495z"/>
		<path class="st1" d="M585.8,737.6l0.7,12.9l-0.9,0c-0.3-2.2-0.9-4-1.7-5.4c-0.8-1.4-1.9-2.7-3.4-3.8c-1.2-0.9-2.7-1.6-4.3-1.9
			c-1.7-0.4-3.9-0.6-6.6-0.6h-8.9v23.4h2.3c2.4,0,4.2-0.2,5.4-0.5c1.2-0.3,2.2-0.9,2.9-1.7c0.7-0.8,1.3-1.6,1.6-2.7
			c0.4-1,0.6-2.5,0.9-4.6l0.9,0l-0.2,20.9h-0.9c-0.2-2-0.6-3.6-1-4.8c-0.5-1.2-1.1-2.3-1.9-3.1c-0.8-0.8-1.8-1.4-3-1.8
			s-2.8-0.6-4.8-0.6h-2.2v8.9c0,3.6,0.1,6.2,0.3,7.8c0.2,1.6,0.5,3,1.1,4.1c0.9,1.9,2.2,3.2,4,4.1c1.8,0.9,4.2,1.3,7.2,1.3
			c3.1,0,5.7-0.4,7.9-1.2c2.1-0.8,3.8-2,5.2-3.7c0.9-1.1,1.7-2.4,2.3-3.8c0.6-1.4,1.1-3.3,1.6-5.7l0.9,0l-0.5,15.5h-46.6V790
			c1.5-0.1,2.7-0.3,3.6-0.6c0.9-0.3,1.8-0.9,2.5-1.6c0.8-0.8,1.4-1.9,1.7-3.2c0.3-1.3,0.4-3.3,0.4-5.9v-28.8c0-2.7-0.2-4.6-0.4-5.9
			c-0.3-1.3-0.9-2.3-1.7-3.2c-0.7-0.8-1.5-1.3-2.4-1.6c-0.9-0.3-2.1-0.5-3.7-0.6v-0.9H585.8z"/>
		<path class="st1" d="M603.4,744.7v34c0,2.7,0.1,4.7,0.4,5.9c0.3,1.3,0.9,2.3,1.7,3.2c0.7,0.8,1.6,1.3,2.5,1.6
			c0.9,0.3,2.1,0.5,3.6,0.6v0.9h-18V790c1.5-0.1,2.7-0.3,3.6-0.6c0.9-0.3,1.8-0.9,2.5-1.6c0.8-0.8,1.4-1.9,1.7-3.2
			c0.3-1.3,0.4-3.3,0.4-5.9v-28.8c0-2.6-0.2-4.6-0.4-5.9c-0.3-1.3-0.9-2.3-1.7-3.2c-0.7-0.8-1.5-1.3-2.4-1.6
			c-0.9-0.3-2.1-0.5-3.7-0.6v-0.9h15l31.7,40.5v-28.2c0-2.7-0.2-4.7-0.4-5.9c-0.3-1.3-0.9-2.3-1.7-3.2c-0.7-0.8-1.6-1.3-2.5-1.6
			c-0.9-0.3-2.1-0.5-3.6-0.6v-0.9h18v0.9c-2.6,0-4.6,0.8-6.1,2.3c-0.8,0.8-1.4,1.9-1.7,3.2c-0.3,1.3-0.4,3.2-0.4,5.9v41.1h-1.8
			L603.4,744.7z"/>
		<path class="st1" d="M663.8,744.7v34c0,2.7,0.1,4.7,0.4,5.9c0.3,1.3,0.9,2.3,1.7,3.2c0.7,0.8,1.6,1.3,2.5,1.6
			c0.9,0.3,2.1,0.5,3.6,0.6v0.9h-18V790c1.5-0.1,2.7-0.3,3.6-0.6c0.9-0.3,1.8-0.9,2.5-1.6c0.8-0.8,1.4-1.9,1.7-3.2
			c0.3-1.3,0.4-3.3,0.4-5.9v-28.8c0-2.6-0.2-4.6-0.4-5.9c-0.3-1.3-0.9-2.3-1.7-3.2c-0.7-0.8-1.5-1.3-2.4-1.6
			c-0.9-0.3-2.1-0.5-3.7-0.6v-0.9h15l31.7,40.5v-28.2c0-2.7-0.2-4.7-0.4-5.9c-0.3-1.3-0.9-2.3-1.7-3.2c-0.7-0.8-1.6-1.3-2.5-1.6
			c-0.9-0.3-2.1-0.5-3.6-0.6v-0.9h18v0.9c-2.6,0-4.6,0.8-6.1,2.3c-0.8,0.8-1.4,1.9-1.7,3.2c-0.3,1.3-0.4,3.2-0.4,5.9v41.1h-1.8
			L663.8,744.7z"/>
		<path class="st1" d="M739.4,737.6v0.9c-1.5,0.1-2.7,0.3-3.6,0.6c-0.9,0.3-1.8,0.9-2.5,1.6c-1,1-1.6,2.5-1.9,4.3
			c-0.2,1.4-0.2,3-0.2,4.8v28.8c0,2.2,0.1,3.9,0.3,5.1c0.2,1.3,0.5,2.3,1,3c0.7,1,1.5,1.8,2.6,2.3c1.1,0.5,2.5,0.8,4.3,0.9v0.9h-25
			V790c1.5-0.1,2.7-0.3,3.7-0.6c0.9-0.4,1.7-0.9,2.4-1.6c0.8-0.8,1.4-1.9,1.7-3.2c0.3-1.3,0.4-3.3,0.4-5.9v-28.8
			c0-2.7-0.1-4.7-0.4-5.9c-0.3-1.3-0.8-2.3-1.7-3.2c-0.7-0.8-1.5-1.3-2.5-1.6c-0.9-0.3-2.1-0.5-3.6-0.6v-0.9H739.4z"/>
		<path class="st1" d="M797.6,790.9H772V790c2.3-0.2,3.9-0.6,4.8-1.2c1.6-1,2.4-2.4,2.4-4.2c0-1.1-0.4-2.5-1.1-4.3l-0.7-1.6
			l-3.8-9.2h-17.2l-2,5.4l-1,2.4c-1.2,2.9-1.8,5.1-1.8,6.8c0,1,0.2,1.9,0.6,2.7c0.4,0.8,1,1.5,1.7,2c1,0.7,2.3,1.1,3.9,1.3v0.9
			h-17.5V790c1.4-0.1,2.6-0.4,3.6-1c1-0.6,2.1-1.6,3-2.9c0.8-1.1,1.6-2.4,2.4-4.1c0.8-1.7,1.8-4.2,3.1-7.6l14.3-36.8h2.2l17,41.1
			c1.3,3.1,2.3,5.3,3,6.6c0.8,1.3,1.6,2.3,2.5,3c0.6,0.5,1.3,0.8,2.1,1.1c0.8,0.2,2,0.5,3.6,0.6V790.9z M773.1,767.9l-8.2-20.2
			l-7.7,20.2H773.1z"/>
		<path class="st1" d="M798.7,790.9V790c2.6,0,4.7-0.7,6.1-2.2c0.8-0.8,1.4-1.9,1.7-3.2c0.3-1.3,0.4-3.3,0.4-5.9v-28.8
			c0-2.8-0.2-4.8-0.5-6.1c-0.3-1.3-0.9-2.4-1.8-3.2c-0.7-0.7-1.5-1.2-2.4-1.5s-2.1-0.5-3.5-0.5v-0.9h25v0.9
			c-1.4,0.1-2.6,0.3-3.5,0.6c-0.9,0.3-1.7,0.8-2.4,1.5c-0.9,0.9-1.5,1.9-1.8,3.2c-0.3,1.3-0.5,3.3-0.5,6.1v22.5c0,3.5,0.1,6,0.3,7.7
			c0.2,1.7,0.5,3.1,1.1,4.1c0.9,1.9,2.3,3.2,4.1,4.1c1.8,0.9,4.2,1.3,7.1,1.3c3.1,0,5.7-0.4,7.8-1.2c2.1-0.8,3.9-2.1,5.2-3.8
			c0.9-1.2,1.7-2.5,2.2-4s1.1-3.4,1.6-5.9l0.9,0.1l-0.5,16H798.7z"/>
	</g>
	<polygon class="st2" points="776.4,501.9 655.8,708 612.8,708 728.9,500.2 698.3,447 548.6,708 498.3,708 675.7,407.9 646.4,357 
		441.9,708 424.8,708 303.6,502.1 425.2,293.6 573.4,293.6 429.3,544.6 404.7,510.6 507.1,336.4 446.8,335.5 351.5,499.8 
		433.3,643.3 637.3,293.6 656.8,293.6 	"/>
</g>
</svg>
