<?xml version="1.0" encoding="utf-8"?>
<!-- Generator: Adobe Illustrator 19.2.1, SVG Export Plug-In . SVG Version: 6.00 Build 0)  -->
<svg version="1.1" id="Capa_1" xmlns="http://www.w3.org/2000/svg" xmlns:xlink="http://www.w3.org/1999/xlink" x="0px" y="0px"
	 viewBox="0 0 1030 260" style="enable-background:new 0 0 1030 260;" xml:space="preserve">
<style type="text/css">
	.st0{stroke:#000000;stroke-width:7;}
	.st1{fill:#FFFFFF;}
	.st2{fill:#FFFFFF;stroke:#FFFFFF;stroke-width:7;}
</style>
<g id="Capa_2">
	<rect class="st0" width="1030" height="260"/>
</g>
<g>
	<path class="st1" d="M358.9,101.8l0.8,14.9h-1c-0.3-2.5-1-4.6-2-6.2c-0.9-1.6-2.2-3.1-3.9-4.4c-1.4-1-3.1-1.8-5-2.2
		c-2-0.5-4.5-0.7-7.6-0.7H330v26.9h2.6c2.8,0,4.8-0.2,6.2-0.6s2.5-1,3.3-2c0.8-0.9,1.5-1.8,1.8-3.1c0.5-1.2,0.7-2.9,1-5.3h1
		l-0.2,24.1h-1c-0.2-2.3-0.7-4.1-1.2-5.5c-0.6-1.4-1.3-2.6-2.2-3.6c-0.9-0.9-2.1-1.6-3.5-2.1c-1.4-0.5-3.2-0.7-5.5-0.7H330v10.2
		c0,4.1,0.1,7.1,0.3,9c0.2,1.8,0.6,3.5,1.3,4.7c1,2.2,2.5,3.7,4.6,4.7c2.1,1,4.8,1.5,8.3,1.5c3.6,0,6.6-0.5,9.1-1.4
		c2.4-0.9,4.4-2.3,6-4.3c1-1.3,2-2.8,2.6-4.4c0.7-1.6,1.3-3.8,1.8-6.6h1l-0.6,17.8h-53.7v-0.7c1.7-0.1,3.1-0.3,4.1-0.7
		s2.1-1,2.9-1.8c0.9-0.9,1.6-2.2,2-3.7s0.5-3.8,0.5-6.8V116c0-3.1-0.2-5.3-0.5-6.8c-0.3-1.5-1-2.6-2-3.7c-0.8-0.9-1.7-1.5-2.8-1.8
		c-1-0.3-2.4-0.6-4.3-0.7v-1h48V101.8z"/>
	<path class="st1" d="M368,163.2v-1c3,0,5.4-0.8,7-2.5c0.9-0.9,1.6-2.2,2-3.7s0.5-3.8,0.5-6.8V116c0-3.2-0.2-5.5-0.6-7
		c-0.3-1.5-1-2.8-2.1-3.7c-0.8-0.8-1.7-1.4-2.8-1.7c-1-0.3-2.4-0.6-4-0.6v-1h28.8v1c-1.6,0.1-3,0.3-4,0.7c-1,0.3-2,0.9-2.8,1.7
		c-1,1-1.7,2.2-2.1,3.7c-0.3,1.5-0.6,3.8-0.6,7V142c0,4,0.1,6.9,0.3,8.9c0.2,2,0.6,3.6,1.3,4.7c1,2.2,2.6,3.7,4.7,4.7
		c2.1,1,4.8,1.5,8.2,1.5c3.6,0,6.6-0.5,9-1.4c2.4-0.9,4.5-2.4,6-4.4c1-1.4,2-2.9,2.5-4.6c0.6-1.7,1.3-3.9,1.8-6.8l1,0.1l-0.6,18.4
		L368,163.2L368,163.2z"/>
	<path class="st1" d="M524.8,102.8c-1.7,0.1-3.1,0.3-4.1,0.7c-1,0.3-2,1-2.9,1.8c-0.7,0.6-1.2,1.4-1.5,2.1c-0.3,0.8-0.6,1.7-0.7,2.9
		c-0.2,1.6-0.3,3.5-0.3,5.5V149c0,3.1,0.2,5.4,0.6,6.9s1,2.6,2,3.6c1.6,1.6,4,2.4,7,2.6v1H496v-1c1.7-0.1,3.1-0.3,4.3-0.7
		c1-0.5,2.1-1,2.9-1.8c0.9-0.9,1.6-2.2,2-3.7c0.3-1.5,0.5-3.8,0.5-6.8v-40.2l-23.1,54.3h-0.9l-23-53.5v39.4c0,3.1,0.1,5.4,0.5,6.8
		c0.3,1.5,1,2.6,2,3.7c0.8,0.9,1.8,1.5,2.9,1.8c1,0.3,2.4,0.6,4.1,0.7v1h-20.7v-1c1.7-0.1,3.1-0.3,4.1-0.7c1-0.3,2.1-1,2.9-1.8
		c0.9-0.9,1.6-2.2,2-3.7c0.3-1.5,0.5-3.8,0.5-6.8V116c0-1.4,0-2.6-0.1-3.9c-0.1-2.2-0.5-3.8-1-4.8c-0.8-1.4-1.7-2.4-3.1-3.1
		s-3-1-5.2-1.2v-1h19.6l19.5,48.1l20.1-48.1h18.5v0.9H524.8z"/>
	<path class="st1" d="M558.1,101.8v1c-1.7,0.1-3.1,0.3-4.1,0.7c-1,0.3-2.1,1-2.9,1.8c-1.2,1.2-1.8,2.9-2.2,5
		c-0.2,1.6-0.2,3.5-0.2,5.5V149c0,2.5,0.1,4.5,0.3,5.9c0.2,1.5,0.6,2.6,1.2,3.5c0.8,1.2,1.7,2.1,3,2.6c1.3,0.6,2.9,0.9,5,1v1h-28.8
		v-0.9c1.7-0.1,3.1-0.3,4.3-0.7c1-0.5,2-1,2.8-1.8c0.9-0.9,1.6-2.2,2-3.7s0.5-3.8,0.5-6.8V116c0-3.1-0.1-5.4-0.5-6.8
		c-0.3-1.5-0.9-2.6-2-3.7c-0.8-0.9-1.7-1.5-2.9-1.8c-1-0.3-2.4-0.6-4.1-0.7v-1h28.8V101.8z"/>
	<path class="st1" d="M562.5,163.2v-1c3,0,5.4-0.8,7-2.5c0.9-0.9,1.6-2.2,2-3.7s0.5-3.8,0.5-6.8V116c0-3.2-0.2-5.5-0.6-7
		s-1-2.8-2.1-3.7c-0.8-0.8-1.7-1.4-2.8-1.7c-1-0.3-2.4-0.6-4-0.6v-1h28.8v1c-1.6,0.1-3,0.3-4,0.7c-1,0.3-2,0.9-2.8,1.7
		c-1,1-1.7,2.2-2.1,3.7s-0.6,3.8-0.6,7V142c0,4,0.1,6.9,0.3,8.9c0.2,2,0.6,3.6,1.3,4.7c1,2.2,2.6,3.7,4.7,4.7c2.1,1,4.8,1.5,8.2,1.5
		c3.6,0,6.6-0.5,9-1.4s4.5-2.4,6-4.4c1-1.4,2-2.9,2.5-4.6c0.6-1.7,1.3-3.9,1.8-6.8l1,0.1l-0.6,18.4L562.5,163.2L562.5,163.2z"/>
	<path class="st1" d="M618.6,163.2v-1c3,0,5.4-0.8,7-2.5c0.9-0.9,1.6-2.2,2-3.7c0.3-1.5,0.5-3.8,0.5-6.8V116c0-3.2-0.2-5.5-0.6-7
		c-0.3-1.5-1-2.8-2.1-3.7c-0.8-0.8-1.7-1.4-2.8-1.7c-1-0.3-2.4-0.6-4-0.6v-1h28.8v1c-1.6,0.1-3,0.3-4,0.7c-1,0.3-2,0.9-2.8,1.7
		c-1,1-1.7,2.2-2.1,3.7s-0.6,3.8-0.6,7V142c0,4,0.1,6.9,0.3,8.9c0.2,2,0.6,3.6,1.3,4.7c1,2.2,2.6,3.7,4.7,4.7c2.1,1,4.8,1.5,8.2,1.5
		c3.6,0,6.6-0.5,9-1.4s4.5-2.4,6-4.4c1-1.4,2-2.9,2.5-4.6c0.6-1.7,1.3-3.9,1.8-6.8l1,0.1l-0.6,18.4L618.6,163.2L618.6,163.2z"/>
	<path class="st1" d="M723.2,101.8l0.8,14.9h-1c-0.3-2.5-1-4.6-2-6.2s-2.2-3.1-3.9-4.4c-1.4-1-3.1-1.8-5-2.2c-2-0.5-4.5-0.7-7.6-0.7
		h-10.2v26.9h2.6c2.8,0,4.8-0.2,6.2-0.6c1.4-0.3,2.5-1,3.3-2c0.8-0.9,1.5-1.8,1.8-3.1c0.5-1.2,0.7-2.9,1-5.3h1l-0.2,24.1h-1
		c-0.2-2.3-0.7-4.1-1.2-5.5c-0.6-1.4-1.3-2.6-2.2-3.6c-0.9-0.9-2.1-1.6-3.5-2.1c-1.4-0.5-3.2-0.7-5.5-0.7h-2.5v10.2
		c0,4.1,0.1,7.1,0.3,9c0.2,1.8,0.6,3.5,1.3,4.7c1,2.2,2.5,3.7,4.6,4.7c2.1,1,4.8,1.5,8.3,1.5c3.6,0,6.6-0.5,9.1-1.4
		c2.4-0.9,4.4-2.3,6-4.3c1-1.3,2-2.8,2.6-4.4c0.7-1.6,1.3-3.8,1.8-6.6h1l-0.6,17.8h-53.7v-0.7c1.7-0.1,3.1-0.3,4.1-0.7
		c1-0.3,2.1-1,2.9-1.8c0.9-0.9,1.6-2.2,2-3.7s0.5-3.8,0.5-6.8V116c0-3.1-0.2-5.3-0.5-6.8c-0.3-1.5-1-2.6-2-3.7
		c-0.8-0.9-1.7-1.5-2.8-1.8c-1-0.3-2.4-0.6-4.3-0.7v-1h48V101.8z"/>
	<path class="st1" d="M743.4,110v39.1c0,3.1,0.1,5.4,0.5,6.8c0.3,1.5,1,2.6,2,3.7c0.8,0.9,1.8,1.5,2.9,1.8c1,0.3,2.4,0.6,4.1,0.7v1
		h-20.7v-1c1.7-0.1,3.1-0.3,4.1-0.7c1-0.3,2.1-1,2.9-1.8c0.9-0.9,1.6-2.2,2-3.7c0.3-1.5,0.5-3.8,0.5-6.8V116c0-3-0.2-5.3-0.5-6.8
		c-0.3-1.5-1-2.6-2-3.7c-0.8-0.9-1.7-1.5-2.8-1.8c-1-0.3-2.4-0.6-4.3-0.7v-1h17.3l36.5,46.6v-32.5c0-3.1-0.2-5.4-0.5-6.8
		c-0.3-1.5-1-2.6-2-3.7c-0.8-0.9-1.8-1.5-2.9-1.8c-1-0.3-2.4-0.6-4.1-0.7v-1h20.7v1c-3,0-5.3,0.9-7,2.6c-0.9,0.9-1.6,2.2-2,3.7
		c-0.3,1.5-0.5,3.7-0.5,6.8v47.3h-2.1L743.4,110z"/>
	<path class="st1" d="M813,110v39.1c0,3.1,0.1,5.4,0.5,6.8c0.3,1.5,1,2.6,2,3.7c0.8,0.9,1.8,1.5,2.9,1.8s2.4,0.6,4.1,0.7v1h-20.7v-1
		c1.7-0.1,3.1-0.3,4.1-0.7c1-0.3,2.1-1,2.9-1.8c0.9-0.9,1.6-2.2,2-3.7s0.5-3.8,0.5-6.8V116c0-3-0.2-5.3-0.5-6.8
		c-0.3-1.5-1-2.6-2-3.7c-0.8-0.9-1.7-1.5-2.8-1.8c-1-0.3-2.4-0.6-4.3-0.7v-1H819l36.5,46.6v-32.5c0-3.1-0.2-5.4-0.5-6.8
		c-0.3-1.5-1-2.6-2-3.7c-0.8-0.9-1.8-1.5-2.9-1.8c-1-0.3-2.4-0.6-4.1-0.7v-1h20.7v1c-3,0-5.3,0.9-7,2.6c-0.9,0.9-1.6,2.2-2,3.7
		c-0.3,1.5-0.5,3.7-0.5,6.8v47.3h-2.1L813,110z"/>
	<path class="st1" d="M900,101.8v1c-1.7,0.1-3.1,0.3-4.1,0.7c-1,0.3-2.1,1-2.9,1.8c-1.2,1.2-1.8,2.9-2.2,5c-0.2,1.6-0.2,3.5-0.2,5.5
		V149c0,2.5,0.1,4.5,0.3,5.9c0.2,1.5,0.6,2.6,1.2,3.5c0.8,1.2,1.7,2.1,3,2.6s2.9,0.9,5,1v1h-28.8v-0.9c1.7-0.1,3.1-0.3,4.3-0.7
		c1-0.5,2-1,2.8-1.8c0.9-0.9,1.6-2.2,2-3.7c0.3-1.5,0.5-3.8,0.5-6.8V116c0-3.1-0.1-5.4-0.5-6.8c-0.3-1.5-0.9-2.6-2-3.7
		c-0.8-0.9-1.7-1.5-2.9-1.8c-1-0.3-2.4-0.6-4.1-0.7v-1H900V101.8z"/>
	<path class="st1" d="M967,163.2h-29.5v-1c2.6-0.2,4.5-0.7,5.5-1.4c1.8-1.2,2.8-2.8,2.8-4.8c0-1.3-0.5-2.9-1.3-5l-0.8-1.8l-4.4-10.6
		h-19.8l-2.3,6.2l-1.2,2.8c-1.4,3.3-2.1,5.9-2.1,7.8c0,1.2,0.2,2.2,0.7,3.1c0.5,0.9,1.2,1.7,2,2.3c1.2,0.8,2.6,1.3,4.5,1.5v1h-20.1
		v-1.2c1.6-0.1,3-0.5,4.1-1.2c1.2-0.7,2.4-1.8,3.5-3.3c0.9-1.3,1.8-2.8,2.8-4.7c0.9-2,2.1-4.8,3.6-8.7l16.5-42.4h2.5l19.6,47.3
		c1.5,3.6,2.6,6.1,3.5,7.6c0.9,1.5,1.8,2.6,2.9,3.5c0.7,0.6,1.5,0.9,2.4,1.3c0.9,0.2,2.3,0.6,4.1,0.7v1H967z M938.8,136.7l-9.4-23.3
		l-8.9,23.3H938.8z"/>
	<path class="st1" d="M968.3,163.2v-1c3,0,5.4-0.8,7-2.5c0.9-0.9,1.6-2.2,2-3.7c0.3-1.5,0.5-3.8,0.5-6.8V116c0-3.2-0.2-5.5-0.6-7
		c-0.3-1.5-1-2.8-2.1-3.7c-0.8-0.8-1.7-1.4-2.8-1.7c-1-0.3-2.4-0.6-4-0.6v-1h28.8v1c-1.6,0.1-3,0.3-4,0.7c-1,0.3-2,0.9-2.8,1.7
		c-1,1-1.7,2.2-2.1,3.7c-0.3,1.5-0.6,3.8-0.6,7V142c0,4,0.1,6.9,0.3,8.9c0.2,2,0.6,3.6,1.3,4.7c1,2.2,2.6,3.7,4.7,4.7
		c2.1,1,4.8,1.5,8.2,1.5c3.6,0,6.6-0.5,9-1.4s4.5-2.4,6-4.4c1-1.4,2-2.9,2.5-4.6c0.6-1.7,1.3-3.9,1.8-6.8l1,0.1l-0.6,18.4
		L968.3,163.2L968.3,163.2z"/>
</g>
<polygon class="st2" points="287.3,129.6 217.7,248.5 192.9,248.5 259.9,128.7 242.2,98 155.9,248.5 126.9,248.5 229.2,75.4 
	212.3,46.1 94.4,248.5 84.5,248.5 14.7,129.7 84.8,9.5 170.2,9.5 87.1,154.3 73,134.7 132,34.2 97.2,33.7 42.3,128.4 89.4,211.2 
	207.1,9.5 218.3,9.5 "/>
</svg>
